C:\Users\nbianco\repos\ankle-perturb-sim\results\experiments\subject01\walk2\expdata\ground_reaction_unfiltered.mot
version=1
nRows=22
nColumns=19
inDegrees=no
endheader
time	ground_force_r_vx	ground_force_r_vy	ground_force_r_vz	ground_force_r_px	ground_force_r_py	ground_force_r_pz	ground_force_l_vx	ground_force_l_vy	ground_force_l_vz	ground_force_l_px	ground_force_l_py	ground_force_l_pz	ground_torque_r_x	ground_torque_r_y	ground_torque_r_z	ground_torque_l_x	ground_torque_l_y	ground_torque_l_z
4.243000	0.000000	-0.000000	0.000000	-0.000000	-0.000000	0.000000	-36.843044	593.240770	27.865296	0.989127	0.000000	-0.558747	0.000000	0.000000	0.000000	0.000000	2.747129	0.000000
4.244000	0.000000	-0.000000	0.000000	-0.000000	-0.000000	0.000000	-36.285089	591.388003	27.794082	0.988235	0.000000	-0.558757	0.000000	0.000000	0.000000	0.000000	2.722459	0.000000
4.245000	0.000000	-0.000000	0.000000	-0.000000	-0.000000	0.000000	-35.730747	589.567075	27.712763	0.987334	0.000000	-0.558770	0.000000	0.000000	0.000000	0.000000	2.697703	0.000000
4.246000	0.000000	-0.000000	0.000000	-0.000000	-0.000000	0.000000	-35.180379	587.778895	27.623650	0.986427	0.000000	-0.558783	0.000000	0.000000	0.000000	0.000000	2.672881	0.000000
4.247000	0.000000	0.000000	0.000000	0.000000	0.000000	-0.000000	-34.634458	586.024480	27.529376	0.985515	0.000000	-0.558799	0.000000	0.000000	0.000000	0.000000	2.648016	0.000000
4.248000	0.000000	0.000000	-0.000000	0.000000	0.000000	-0.000000	-34.093572	584.304948	27.432804	0.984597	0.000000	-0.558816	0.000000	0.000000	0.000000	0.000000	2.623128	0.000000
4.249000	-0.000000	0.000000	-0.000000	0.000000	0.000000	-0.000000	-33.558420	582.621497	27.336921	0.983677	0.000000	-0.558835	0.000000	0.000000	0.000000	0.000000	2.598237	0.000000
4.250000	-0.000000	0.000000	-0.000000	0.000000	0.000000	-0.000000	-33.029804	580.975388	27.244740	0.982755	0.000000	-0.558854	0.000000	0.000000	0.000000	0.000000	2.573361	0.000000
4.251000	-0.000000	0.000000	-0.000000	0.000000	0.000000	-0.000000	-32.508612	579.367917	27.159191	0.981833	0.000000	-0.558876	0.000000	0.000000	0.000000	0.000000	2.548516	0.000000
4.252000	-0.000000	0.000000	-0.000000	0.000000	0.000000	-0.000000	-31.995804	577.800385	27.083024	0.980912	0.000000	-0.558899	0.000000	0.000000	0.000000	0.000000	2.523715	0.000000
4.253000	-0.000000	0.000000	-0.000000	0.000000	0.000000	-0.000000	-31.492383	576.274067	27.018716	0.979993	0.000000	-0.558923	0.000000	0.000000	0.000000	0.000000	2.498970	0.000000
4.254000	-0.000000	0.000000	-0.000000	0.000000	0.000000	-0.000000	-30.999370	574.790177	26.968384	0.979079	0.000000	-0.558949	0.000000	0.000000	0.000000	0.000000	2.474288	0.000000
4.255000	-0.000000	0.000000	-0.000000	0.000000	0.000000	-0.000000	-30.517768	573.349834	26.933717	0.978169	0.000000	-0.558976	0.000000	0.000000	0.000000	0.000000	2.449675	0.000000
4.256000	-0.000000	0.000000	-0.000000	0.000000	0.000000	-0.000000	-30.048529	571.954026	26.915917	0.977265	0.000000	-0.559005	0.000000	0.000000	0.000000	0.000000	2.425131	0.000000
4.257000	-0.000000	0.000000	-0.000000	0.000000	0.000000	-0.000000	-29.592519	570.603580	26.915655	0.976367	0.000000	-0.559035	0.000000	0.000000	0.000000	0.000000	2.400654	0.000000
4.258000	-0.000000	-0.000000	-0.000000	-0.000000	-0.000000	0.000000	-29.150481	569.299136	26.933048	0.975477	0.000000	-0.559068	0.000000	0.000000	0.000000	0.000000	2.376239	0.000000
4.259000	-0.000000	-0.000000	0.000000	-0.000000	-0.000000	0.000000	-28.722997	568.041121	26.967650	0.974595	0.000000	-0.559102	0.000000	0.000000	0.000000	0.000000	2.351879	0.000000
4.260000	0.000000	-0.000000	0.000000	-0.000000	-0.000000	0.000000	-28.310462	566.829736	27.018465	0.973720	0.000000	-0.559139	0.000000	0.000000	0.000000	0.000000	2.327562	0.000000
4.261000	0.000000	-0.000000	0.000000	-0.000000	-0.000000	0.000000	-27.913057	565.664947	27.083969	0.972853	0.000000	-0.559177	0.000000	0.000000	0.000000	0.000000	2.303275	0.000000
4.262000	0.000000	-0.000000	0.000000	-0.000000	-0.000000	0.000000	-27.530724	564.546482	27.162159	0.971993	0.000000	-0.559219	0.000000	0.000000	0.000000	0.000000	2.279004	0.000000
4.263000	0.000000	-0.000000	0.000000	-0.000000	-0.000000	0.000000	-27.163157	563.473842	27.250607	0.971140	0.000000	-0.559263	0.000000	0.000000	0.000000	0.000000	2.254731	0.000000
4.264000	0.000000	-0.000000	0.000000	-0.000000	-0.000000	0.000000	-26.809795	562.446311	27.346536	0.970293	0.000000	-0.559309	0.000000	0.000000	0.000000	0.000000	2.230442	0.000000
